<svg xmlns="http://www.w3.org/2000/svg" viewBox="0 0 1200 800">
  <!-- Background and Title -->
  <rect width="1200" height="800" fill="#f8f9fa" />
  <text x="600" y="50" font-family="Arial" font-size="24" text-anchor="middle" font-weight="bold">3D Autoencoder Architecture for DAT Scans (64×128×128)</text>
  
  <!-- Input -->
  <rect x="150" y="120" width="120" height="60" rx="5" fill="#B3E5FC" stroke="#0288D1" stroke-width="2" />
  <text x="210" y="155" font-family="Arial" font-size="14" text-anchor="middle">Input Volume</text>
  <text x="210" y="175" font-family="Arial" font-size="12" text-anchor="middle">(1, 64, 128, 128)</text>
  
  <!-- Encoder Path -->
  <rect x="100" y="210" width="220" height="40" rx="5" fill="#E3F2FD" stroke="#0288D1" stroke-width="1" />
  <text x="210" y="235" font-family="Arial" font-size="14" text-anchor="middle">Initial Conv (32 filters)</text>
  
  <!-- Down1 -->
  <rect x="100" y="270" width="220" height="60" rx="5" fill="#E3F2FD" stroke="#0288D1" stroke-width="1" />
  <text x="210" y="295" font-family="Arial" font-size="14" text-anchor="middle">Down1: Conv(stride=2) → 64</text>
  <text x="210" y="315" font-family="Arial" font-size="14" text-anchor="middle">ConvBlock → 64</text>
  
  <!-- Down2 -->
  <rect x="100" y="350" width="220" height="60" rx="5" fill="#E3F2FD" stroke="#0288D1" stroke-width="1" />
  <text x="210" y="375" font-family="Arial" font-size="14" text-anchor="middle">Down2: Conv(stride=2) → 128</text>
  <text x="210" y="395" font-family="Arial" font-size="14" text-anchor="middle">ConvBlock → 128</text>
  
  <!-- Down3 -->
  <rect x="100" y="430" width="220" height="60" rx="5" fill="#E3F2FD" stroke="#0288D1" stroke-width="1" />
  <text x="210" y="455" font-family="Arial" font-size="14" text-anchor="middle">Down3: Conv(stride=2) → 256</text>
  <text x="210" y="475" font-family="Arial" font-size="14" text-anchor="middle">ConvBlock → 256</text>
  
  <!-- Down4 -->
  <rect x="100" y="510" width="220" height="60" rx="5" fill="#E3F2FD" stroke="#0288D1" stroke-width="1" />
  <text x="210" y="535" font-family="Arial" font-size="14" text-anchor="middle">Down4: Conv(stride=2) → 512</text>
  <text x="210" y="555" font-family="Arial" font-size="14" text-anchor="middle">ConvBlock → 512</text>
  
  <!-- Flatten -->
  <rect x="100" y="590" width="220" height="40" rx="5" fill="#E3F2FD" stroke="#0288D1" stroke-width="1" />
  <text x="210" y="615" font-family="Arial" font-size="14" text-anchor="middle">Flatten (512 × 4 × 8 × 8)</text>
  
  <!-- Latent Space -->
  <rect x="150" y="650" width="120" height="60" rx="5" fill="#FFD54F" stroke="#FF8F00" stroke-width="2" />
  <text x="210" y="685" font-family="Arial" font-size="14" text-anchor="middle">Latent Space</text>
  <text x="210" y="705" font-family="Arial" font-size="12" text-anchor="middle">(128)</text>

  <!-- Decoder Path -->
  <rect x="880" y="650" width="120" height="60" rx="5" fill="#FFD54F" stroke="#FF8F00" stroke-width="2" />
  <text x="940" y="685" font-family="Arial" font-size="14" text-anchor="middle">Latent Space</text>
  <text x="940" y="705" font-family="Arial" font-size="12" text-anchor="middle">(128)</text>
  
  <!-- Linear Projection -->
  <rect x="830" y="590" width="220" height="40" rx="5" fill="#E8F5E9" stroke="#388E3C" stroke-width="1" />
  <text x="940" y="615" font-family="Arial" font-size="14" text-anchor="middle">Linear → 512 × 4 × 8 × 8</text>
  
  <!-- Up1 -->
  <rect x="830" y="510" width="220" height="60" rx="5" fill="#E8F5E9" stroke="#388E3C" stroke-width="1" />
  <text x="940" y="535" font-family="Arial" font-size="14" text-anchor="middle">Up1: Upsample(×2) → 256</text>
  <text x="940" y="555" font-family="Arial" font-size="14" text-anchor="middle">ConvBlock → 256</text>
  
  <!-- Up2 -->
  <rect x="830" y="430" width="220" height="60" rx="5" fill="#E8F5E9" stroke="#388E3C" stroke-width="1" />
  <text x="940" y="455" font-family="Arial" font-size="14" text-anchor="middle">Up2: Upsample(×2) → 128</text>
  <text x="940" y="475" font-family="Arial" font-size="14" text-anchor="middle">ConvBlock → 128</text>
  
  <!-- Up3 -->
  <rect x="830" y="350" width="220" height="60" rx="5" fill="#E8F5E9" stroke="#388E3C" stroke-width="1" />
  <text x="940" y="375" font-family="Arial" font-size="14" text-anchor="middle">Up3: Upsample(×2) → 64</text>
  <text x="940" y="395" font-family="Arial" font-size="14" text-anchor="middle">ConvBlock → 64</text>
  
  <!-- Up4 -->
  <rect x="830" y="270" width="220" height="60" rx="5" fill="#E8F5E9" stroke="#388E3C" stroke-width="1" />
  <text x="940" y="295" font-family="Arial" font-size="14" text-anchor="middle">Up4: Upsample(×2) → 32</text>
  <text x="940" y="315" font-family="Arial" font-size="14" text-anchor="middle">ConvBlock → 32</text>
  
  <!-- Final Conv -->
  <rect x="830" y="210" width="220" height="40" rx="5" fill="#E8F5E9" stroke="#388E3C" stroke-width="1" />
  <text x="940" y="235" font-family="Arial" font-size="14" text-anchor="middle">Final Conv (1 filter)</text>
  
  <!-- Output -->
  <rect x="880" y="120" width="120" height="60" rx="5" fill="#B3E5FC" stroke="#0288D1" stroke-width="2" />
  <text x="940" y="155" font-family="Arial" font-size="14" text-anchor="middle">Output Volume</text>
  <text x="940" y="175" font-family="Arial" font-size="12" text-anchor="middle">(1, 64, 128, 128)</text>

  <!-- Connecting Lines -->
  <!-- Input to Encoder -->
  <line x1="210" y1="180" x2="210" y2="210" stroke="#0288D1" stroke-width="2" />
  
  <!-- Encoder Path -->
  <line x1="210" y1="250" x2="210" y2="270" stroke="#0288D1" stroke-width="2" />
  <line x1="210" y1="330" x2="210" y2="350" stroke="#0288D1" stroke-width="2" />
  <line x1="210" y1="410" x2="210" y2="430" stroke="#0288D1" stroke-width="2" />
  <line x1="210" y1="490" x2="210" y2="510" stroke="#0288D1" stroke-width="2" />
  <line x1="210" y1="570" x2="210" y2="590" stroke="#0288D1" stroke-width="2" />
  <line x1="210" y1="630" x2="210" y2="650" stroke="#0288D1" stroke-width="2" />
  
  <!-- Latent to Decoder -->
  <path d="M 270 680 H 880" stroke="#FF8F00" stroke-width="2" stroke-dasharray="5,5" />
  
  <!-- Decoder Path -->
  <line x1="940" y1="650" x2="940" y2="630" stroke="#388E3C" stroke-width="2" />
  <line x1="940" y1="590" x2="940" y2="570" stroke="#388E3C" stroke-width="2" />
  <line x1="940" y1="510" x2="940" y2="490" stroke="#388E3C" stroke-width="2" />
  <line x1="940" y1="430" x2="940" y2="410" stroke="#388E3C" stroke-width="2" />
  <line x1="940" y1="350" x2="940" y2="330" stroke="#388E3C" stroke-width="2" />
  <line x1="940" y1="270" x2="940" y2="250" stroke="#388E3C" stroke-width="2" />
  <line x1="940" y1="210" x2="940" y2="180" stroke="#388E3C" stroke-width="2" />
  
  <!-- ConvBlock Definition Box -->
  <rect x="500" y="300" width="200" height="170" rx="5" fill="#ECEFF1" stroke="#546E7A" stroke-width="1" />
  <text x="600" y="325" font-family="Arial" font-size="16" text-anchor="middle" font-weight="bold">ConvBlock</text>
  <line x1="520" y1="335" x2="680" y2="335" stroke="#546E7A" stroke-width="1" />
  <text x="600" y="360" font-family="Arial" font-size="14" text-anchor="middle">3D Convolution</text>
  <text x="600" y="385" font-family="Arial" font-size="14" text-anchor="middle">Batch Normalization</text>
  <text x="600" y="410" font-family="Arial" font-size="14" text-anchor="middle">ReLU (inplace)</text>
  <text x="600" y="445" font-family="Arial" font-size="12" text-anchor="middle" font-style="italic">Memory-efficient block with</text>
  <text x="600" y="465" font-family="Arial" font-size="12" text-anchor="middle" font-style="italic">kernel_size=3, padding=1</text>
  
  <!-- Volume Size Labels - Left side (kept as is) -->
  <text x="340" y="230" font-family="Arial" font-size="12" text-anchor="left" fill="#0288D1">(32, 64, 128, 128)</text>
  <text x="340" y="300" font-family="Arial" font-size="12" text-anchor="left" fill="#0288D1">(64, 32, 64, 64)</text>
  <text x="340" y="380" font-family="Arial" font-size="12" text-anchor="left" fill="#0288D1">(128, 16, 32, 32)</text>
  <text x="340" y="460" font-family="Arial" font-size="12" text-anchor="left" fill="#0288D1">(256, 8, 16, 16)</text>
  <text x="340" y="540" font-family="Arial" font-size="12" text-anchor="left" fill="#0288D1">(512, 4, 8, 8)</text>
  
  <!-- Volume Size Labels - Right side (moved to the left) -->
  <text x="720" y="230" font-family="Arial" font-size="12" text-anchor="right" fill="#388E3C">(32, 64, 128, 128)</text>
  <text x="720" y="300" font-family="Arial" font-size="12" text-anchor="right" fill="#388E3C">(32, 64, 128, 128)</text>
  <text x="720" y="380" font-family="Arial" font-size="12" text-anchor="right" fill="#388E3C">(64, 32, 64, 64)</text>
  <text x="720" y="460" font-family="Arial" font-size="12" text-anchor="right" fill="#388E3C">(128, 16, 32, 32)</text>
  <text x="720" y="540" font-family="Arial" font-size="12" text-anchor="right" fill="#388E3C">(256, 8, 16, 16)</text>
  
  <!-- Memory Optimization Notes -->
  <rect x="450" y="650" width="300" height="130" rx="5" fill="#FFF3E0" stroke="#E65100" stroke-width="1" />
  <text x="600" y="675" font-family="Arial" font-size="16" text-anchor="middle" font-weight="bold">Memory Optimizations</text>
  <text x="600" y="705" font-family="Arial" font-size="14" text-anchor="middle">• Inplace ReLU operations</text>
  <text x="600" y="730" font-family="Arial" font-size="14" text-anchor="middle">• Mixed precision training</text>
  <text x="600" y="755" font-family="Arial" font-size="14" text-anchor="middle">• Gradient accumulation</text>
</svg>