<svg xmlns="http://www.w3.org/2000/svg" viewBox="0 0 900 750" width="900" height="800">
  <!-- Background -->
  <rect width="900" height="900" fill="white"/>
  
  <!-- Title -->
  <text x="450" y="30" font-family="Arial" font-size="24" font-weight="bold" text-anchor="middle">3D Variational Autoencoder Architecture for DAT Scans (64×128×128)</text>
  
  <!-- Input Volume -->
  <rect x="80" y="70" width="200" height="50" rx="10" ry="10" fill="#B3DEFF" stroke="#0078D7" stroke-width="2"/>
  <text x="180" y="95" font-family="Arial" font-size="16" font-weight="bold" text-anchor="middle">Input Volume</text>
  <text x="180" y="115" font-family="Arial" font-size="14" text-anchor="middle">(1, 64, 128, 128)</text>
  
  <!-- Encoder Path (Left) -->
  <!-- Initial Conv -->
  <rect x="80" y="150" width="200" height="50" rx="10" ry="10" fill="#B3DEFF" stroke="#0078D7" stroke-width="2"/>
  <text x="180" y="180" font-family="Arial" font-size="16" font-weight="bold" text-anchor="middle">Initial Conv (16 filters)</text>
  
  <!-- Down1 -->
  <rect x="80" y="230" width="200" height="50" rx="10" ry="10" fill="#B3DEFF" stroke="#0078D7" stroke-width="2"/>
  <text x="180" y="250" font-family="Arial" font-size="14" font-weight="bold" text-anchor="middle">Down1: Conv(stride=2) → 32</text>
  <text x="180" y="270" font-family="Arial" font-size="14" text-anchor="middle">ConvBlock → 32</text>
  
  <!-- Down2 -->
  <rect x="80" y="310" width="200" height="50" rx="10" ry="10" fill="#B3DEFF" stroke="#0078D7" stroke-width="2"/>
  <text x="180" y="330" font-family="Arial" font-size="14" font-weight="bold" text-anchor="middle">Down2: Conv(stride=2) → 64</text>
  <text x="180" y="350" font-family="Arial" font-size="14" text-anchor="middle">ConvBlock → 64</text>
  
  <!-- Down3 -->
  <rect x="80" y="390" width="200" height="50" rx="10" ry="10" fill="#B3DEFF" stroke="#0078D7" stroke-width="2"/>
  <text x="180" y="410" font-family="Arial" font-size="14" font-weight="bold" text-anchor="middle">Down3: Conv(stride=2) → 128</text>
  <text x="180" y="430" font-family="Arial" font-size="14" text-anchor="middle">ConvBlock → 128</text>
  
  <!-- Down4 -->
  <rect x="80" y="470" width="200" height="50" rx="10" ry="10" fill="#B3DEFF" stroke="#0078D7" stroke-width="2"/>
  <text x="180" y="490" font-family="Arial" font-size="14" font-weight="bold" text-anchor="middle">Down4: Conv(stride=2) → 256</text>
  <text x="180" y="510" font-family="Arial" font-size="14" text-anchor="middle">ConvBlock → 256</text>
  
  <!-- Flatten -->
  <rect x="80" y="550" width="200" height="50" rx="10" ry="10" fill="#B3DEFF" stroke="#0078D7" stroke-width="2"/>
  <text x="180" y="580" font-family="Arial" font-size="16" font-weight="bold" text-anchor="middle">Flatten (256 × 4 × 8 × 8)</text>
  
  <!-- Distribution Parameters -->
  <rect x="30" y="630" width="130" height="50" rx="10" ry="10" fill="#E6CCFF" stroke="#9966CC" stroke-width="2"/>
  <text x="95" y="655" font-family="Arial" font-size="16" font-weight="bold" text-anchor="middle">Mean (μ)</text>
  <text x="95" y="675" font-family="Arial" font-size="14" text-anchor="middle">(256)</text>
  
  <rect x="180" y="630" width="170" height="50" rx="10" ry="10" fill="#E6CCFF" stroke="#9966CC" stroke-width="2"/>
  <text x="265" y="655" font-family="Arial" font-size="16" font-weight="bold" text-anchor="middle">Log Variance (log σ²)</text>
  <text x="265" y="675" font-family="Arial" font-size="14" text-anchor="middle">(256)</text>
  
  <!-- Reparameterization -->
  <rect x="80" y="700" width="200" height="50" rx="10" ry="10" fill="#FFDA85" stroke="#FF9900" stroke-width="2"/>
  <text x="180" y="720" font-family="Arial" font-size="14" font-weight="bold" text-anchor="middle">Reparameterization</text>
  <text x="180" y="740" font-family="Arial" font-size="12" text-anchor="middle">z = μ + σ·ε where ε ~ N(0,1)</text>
  
  <!-- ConvBlock Definition -->
  <rect x="380" y="180" width="200" height="200" rx="10" ry="10" fill="#E6E6E6" stroke="#666666" stroke-width="2"/>
  <text x="480" y="210" font-family="Arial" font-size="18" font-weight="bold" text-anchor="middle">ConvBlock</text>
  <line x1="380" y1="225" x2="580" y2="225" stroke="#666666" stroke-width="1"/>
  <text x="480" y="250" font-family="Arial" font-size="16" text-anchor="middle">3D Convolution</text>
  <text x="480" y="280" font-family="Arial" font-size="16" text-anchor="middle">Batch Normalization</text>
  <text x="480" y="310" font-family="Arial" font-size="16" text-anchor="middle">ReLU (inplace)</text>
  <text x="480" y="340" font-family="Arial" font-size="12" font-style="italic" text-anchor="middle">Memory-efficient block with</text>
  <text x="480" y="360" font-family="Arial" font-size="12" font-style="italic" text-anchor="middle">kernel_size=3, padding=1</text>
  
  <!-- VAE Loss Definition -->
  <rect x="380" y="420" width="200" height="240" rx="10" ry="10" fill="#FFD9D9" stroke="#FF6666" stroke-width="2"/>
  <text x="480" y="450" font-family="Arial" font-size="18" font-weight="bold" text-anchor="middle">VAE Loss</text>
  <line x1="380" y1="465" x2="580" y2="465" stroke="#FF6666" stroke-width="1"/>
  <text x="480" y="490" font-family="Arial" font-size="16" text-anchor="middle">Reconstruction Loss</text>
  <text x="480" y="510" font-family="Arial" font-size="14" text-anchor="middle">MSE(input, output)</text>
  <line x1="400" y1="530" x2="560" y2="530" stroke="#FF6666" stroke-width="1" stroke-dasharray="4,4"/>
  <text x="480" y="555" font-family="Arial" font-size="16" text-anchor="middle">KL Divergence Loss</text>
  <text x="480" y="575" font-family="Arial" font-size="14" text-anchor="middle">DKL(N(μ,σ²) || N(0,1))</text>
  <line x1="400" y1="595" x2="560" y2="595" stroke="#FF6666" stroke-width="1" stroke-dasharray="4,4"/>
  <text x="480" y="620" font-family="Arial" font-size="16" text-anchor="middle">Total Loss</text>
  <text x="480" y="640" font-family="Arial" font-size="14" text-anchor="middle">Recon Loss + β·KL Loss</text>
  
  <!-- Output Volume -->
  <rect x="630" y="70" width="200" height="50" rx="10" ry="10" fill="#B3DEFF" stroke="#0078D7" stroke-width="2"/>
  <text x="730" y="95" font-family="Arial" font-size="16" font-weight="bold" text-anchor="middle">Output Volume</text>
  <text x="730" y="115" font-family="Arial" font-size="14" text-anchor="middle">(1, 64, 128, 128)</text>
  
  <!-- Decoder Path (Right) -->
  <!-- Final Conv -->
  <rect x="630" y="150" width="200" height="50" rx="10" ry="10" fill="#D6F5D6" stroke="#339933" stroke-width="2"/>
  <text x="730" y="175" font-family="Arial" font-size="16" font-weight="bold" text-anchor="middle">Final Conv (1 filter)</text>
  <text x="730" y="195" font-family="Arial" font-size="14" text-anchor="middle">kernel_size=1</text>
  
  <!-- Up4 -->
  <rect x="630" y="230" width="200" height="50" rx="10" ry="10" fill="#D6F5D6" stroke="#339933" stroke-width="2"/>
  <text x="730" y="250" font-family="Arial" font-size="14" font-weight="bold" text-anchor="middle">Up4: Upsample(×2) → 32</text>
  <text x="730" y="270" font-family="Arial" font-size="14" text-anchor="middle">ConvBlock → 16</text>
  
  <!-- Up3 -->
  <rect x="630" y="310" width="200" height="50" rx="10" ry="10" fill="#D6F5D6" stroke="#339933" stroke-width="2"/>
  <text x="730" y="330" font-family="Arial" font-size="14" font-weight="bold" text-anchor="middle">Up3: Upsample(×2) → 64</text>
  <text x="730" y="350" font-family="Arial" font-size="14" text-anchor="middle">ConvBlock → 32</text>
  
  <!-- Up2 -->
  <rect x="630" y="390" width="200" height="50" rx="10" ry="10" fill="#D6F5D6" stroke="#339933" stroke-width="2"/>
  <text x="730" y="410" font-family="Arial" font-size="14" font-weight="bold" text-anchor="middle">Up2: Upsample(×2) → 128</text>
  <text x="730" y="430" font-family="Arial" font-size="14" text-anchor="middle">ConvBlock → 64</text>
  
  <!-- Up1 -->
  <rect x="630" y="470" width="200" height="50" rx="10" ry="10" fill="#D6F5D6" stroke="#339933" stroke-width="2"/>
  <text x="730" y="490" font-family="Arial" font-size="14" font-weight="bold" text-anchor="middle">Up1: Upsample(×2) → 256</text>
  <text x="730" y="510" font-family="Arial" font-size="14" text-anchor="middle">ConvBlock → 128</text>
  
  <!-- Reshape -->
  <rect x="630" y="550" width="200" height="50" rx="10" ry="10" fill="#D6F5D6" stroke="#339933" stroke-width="2"/>
  <text x="730" y="580" font-family="Arial" font-size="16" font-weight="bold" text-anchor="middle">Reshape (256, 4, 8, 8)</text>
  
  <!-- Linear -->
  <rect x="630" y="630" width="200" height="50" rx="10" ry="10" fill="#D6F5D6" stroke="#339933" stroke-width="2"/>
  <text x="730" y="655" font-family="Arial" font-size="14" font-weight="bold" text-anchor="middle">Linear</text>
  <text x="730" y="675" font-family="Arial" font-size="14" text-anchor="middle">256 × 4 × 8 × 8</text>
  
  <!-- Latent Space (Decoder Side) -->
  <rect x="630" y="700" width="200" height="50" rx="10" ry="10" fill="#FFDA85" stroke="#FF9900" stroke-width="2"/>
  <text x="730" y="725" font-family="Arial" font-size="16" font-weight="bold" text-anchor="middle">Latent Space</text>
  <text x="730" y="745" font-family="Arial" font-size="14" text-anchor="middle">(256)</text>
  
  <!-- Connecting Lines -->
  <!-- Input to Encoder -->
  <line x1="180" y1="120" x2="180" y2="150" stroke="#000000" stroke-width="2"/>
  <line x1="180" y1="200" x2="180" y2="230" stroke="#000000" stroke-width="2"/>
  <line x1="180" y1="280" x2="180" y2="310" stroke="#000000" stroke-width="2"/>
  <line x1="180" y1="360" x2="180" y2="390" stroke="#000000" stroke-width="2"/>
  <line x1="180" y1="440" x2="180" y2="470" stroke="#000000" stroke-width="2"/>
  <line x1="180" y1="520" x2="180" y2="550" stroke="#000000" stroke-width="2"/>
  
  <!-- Flatten to Distribution Parameters -->
  <line x1="180" y1="600" x2="180" y2="615" stroke="#000000" stroke-width="2"/>
  <line x1="180" y1="615" x2="95" y2="630" stroke="#000000" stroke-width="2"/>
  <line x1="180" y1="615" x2="265" y2="630" stroke="#000000" stroke-width="2"/>
  
  <!-- Distribution Parameters to Reparameterization -->
  <line x1="95" y1="680" x2="95" y2="690" stroke="#000000" stroke-width="2"/>
  <line x1="95" y1="690" x2="150" y2="700" stroke="#000000" stroke-width="2"/>
  <line x1="265" y1="680" x2="265" y2="690" stroke="#000000" stroke-width="2"/>
  <line x1="265" y1="690" x2="210" y2="700" stroke="#000000" stroke-width="2"/>
  
  <!-- Latent Space Connection -->
  <line x1="280" y1="725" x2="630" y2="725" stroke="#FF9900" stroke-width="2" stroke-dasharray="10,5"/>
  
  <!-- Decoder Path -->
  <line x1="730" y1="700" x2="730" y2="680" stroke="#000000" stroke-width="2"/>
  <line x1="730" y1="630" x2="730" y2="600" stroke="#000000" stroke-width="2"/>
  <line x1="730" y1="550" x2="730" y2="520" stroke="#000000" stroke-width="2"/>
  <line x1="730" y1="470" x2="730" y2="440" stroke="#000000" stroke-width="2"/>
  <line x1="730" y1="390" x2="730" y2="360" stroke="#000000" stroke-width="2"/>
  <line x1="730" y1="310" x2="730" y2="280" stroke="#000000" stroke-width="2"/>
  <line x1="730" y1="230" x2="730" y2="200" stroke="#000000" stroke-width="2"/>
  <line x1="730" y1="150" x2="730" y2="120" stroke="#000000" stroke-width="2"/>
</svg>