<svg xmlns="http://www.w3.org/2000/svg" viewBox="0 0 1200 950" width="1200" height="950">
  <!-- Background and Title -->
  <rect width="1200" height="950" fill="#f8f9fa" />
  <text x="600" y="50" font-family="Arial" font-size="24" text-anchor="middle" font-weight="bold">3D Variational Autoencoder Architecture for DAT Scans (64×128×128)</text>
  
  <!-- Input -->
  <rect x="150" y="120" width="120" height="60" rx="5" fill="#B3E5FC" stroke="#0288D1" stroke-width="2" />
  <text x="210" y="155" font-family="Arial" font-size="14" text-anchor="middle">Input Volume</text>
  <text x="210" y="175" font-family="Arial" font-size="12" text-anchor="middle">(1, 64, 128, 128)</text>
  
  <!-- Encoder Path -->
  <rect x="100" y="200" width="220" height="40" rx="5" fill="#E3F2FD" stroke="#0288D1" stroke-width="1" />
  <text x="210" y="225" font-family="Arial" font-size="14" text-anchor="middle">Initial Conv (32 filters)</text>
  
  <!-- Down1 -->
  <rect x="100" y="260" width="220" height="60" rx="5" fill="#E3F2FD" stroke="#0288D1" stroke-width="1" />
  <text x="210" y="285" font-family="Arial" font-size="14" text-anchor="middle">Down1: Conv(stride=2) → 64</text>
  <text x="210" y="305" font-family="Arial" font-size="14" text-anchor="middle">ConvBlock → 64</text>
  
  <!-- Down2 -->
  <rect x="100" y="340" width="220" height="60" rx="5" fill="#E3F2FD" stroke="#0288D1" stroke-width="1" />
  <text x="210" y="365" font-family="Arial" font-size="14" text-anchor="middle">Down2: Conv(stride=2) → 128</text>
  <text x="210" y="385" font-family="Arial" font-size="14" text-anchor="middle">ConvBlock → 128</text>
  
  <!-- Down3 -->
  <rect x="100" y="420" width="220" height="60" rx="5" fill="#E3F2FD" stroke="#0288D1" stroke-width="1" />
  <text x="210" y="445" font-family="Arial" font-size="14" text-anchor="middle">Down3: Conv(stride=2) → 256</text>
  <text x="210" y="465" font-family="Arial" font-size="14" text-anchor="middle">ConvBlock → 256</text>
  
  <!-- Down4 -->
  <rect x="100" y="500" width="220" height="60" rx="5" fill="#E3F2FD" stroke="#0288D1" stroke-width="1" />
  <text x="210" y="525" font-family="Arial" font-size="14" text-anchor="middle">Down4: Conv(stride=2) → 512</text>
  <text x="210" y="545" font-family="Arial" font-size="14" text-anchor="middle">ConvBlock → 512</text>
  
  <!-- Flatten -->
  <rect x="100" y="580" width="220" height="40" rx="5" fill="#E3F2FD" stroke="#0288D1" stroke-width="1" />
  <text x="210" y="605" font-family="Arial" font-size="14" text-anchor="middle">Flatten (512 × 4 × 8 × 8)</text>
  
  <!-- VAE Specific Part: Mean and Log Variance -->
  <rect x="20" y="640" width="150" height="60" rx="5" fill="#E1BEE7" stroke="#7B1FA2" stroke-width="2" />
  <text x="95" y="665" font-family="Arial" font-size="14" text-anchor="middle">Mean (μ)</text>
  <text x="95" y="685" font-family="Arial" font-size="12" text-anchor="middle">(128)</text>
  
  <rect x="250" y="640" width="150" height="60" rx="5" fill="#E1BEE7" stroke="#7B1FA2" stroke-width="2" />
  <text x="325" y="665" font-family="Arial" font-size="14" text-anchor="middle">Log Variance (log σ²)</text>
  <text x="325" y="685" font-family="Arial" font-size="12" text-anchor="middle">(128)</text>
  
  <!-- Reparameterization -->
  <rect x="100" y="720" width="220" height="60" rx="5" fill="#FFD54F" stroke="#FF8F00" stroke-width="2" />
  <text x="210" y="745" font-family="Arial" font-size="14" text-anchor="middle" font-weight="bold">Reparameterization</text>
  <text x="210" y="765" font-family="Arial" font-size="12" text-anchor="middle">z = μ + σ·ε where ε ~ N(0,1)</text>
  
  <!-- Latent Space -->
  <rect x="150" y="800" width="120" height="60" rx="5" fill="#FFD54F" stroke="#FF8F00" stroke-width="2" />
  <text x="210" y="835" font-family="Arial" font-size="14" text-anchor="middle">Latent Space</text>
  <text x="210" y="855" font-family="Arial" font-size="12" text-anchor="middle">(128)</text>

  <!-- Decoder Path -->
  <rect x="880" y="800" width="120" height="60" rx="5" fill="#FFD54F" stroke="#FF8F00" stroke-width="2" />
  <text x="940" y="835" font-family="Arial" font-size="14" text-anchor="middle">Latent Space</text>
  <text x="940" y="855" font-family="Arial" font-size="12" text-anchor="middle">(128)</text>
  
  <!-- Linear Projection -->
  <rect x="830" y="720" width="220" height="60" rx="5" fill="#E8F5E9" stroke="#388E3C" stroke-width="1" />
  <text x="940" y="755" font-family="Arial" font-size="14" text-anchor="middle">Linear → 512 × 4 × 8 × 8</text>
  
  <!-- Up1 -->
  <rect x="830" y="640" width="220" height="60" rx="5" fill="#E8F5E9" stroke="#388E3C" stroke-width="1" />
  <text x="940" y="675" font-family="Arial" font-size="14" text-anchor="middle">Reshape (512, 4, 8, 8)</text>
  
  <!-- Up1 -->
  <rect x="830" y="560" width="220" height="60" rx="5" fill="#E8F5E9" stroke="#388E3C" stroke-width="1" />
  <text x="940" y="585" font-family="Arial" font-size="14" text-anchor="middle">Up1: Upsample(×2) → 256</text>
  <text x="940" y="605" font-family="Arial" font-size="14" text-anchor="middle">ConvBlock → 256</text>
  
  <!-- Up2 -->
  <rect x="830" y="480" width="220" height="60" rx="5" fill="#E8F5E9" stroke="#388E3C" stroke-width="1" />
  <text x="940" y="505" font-family="Arial" font-size="14" text-anchor="middle">Up2: Upsample(×2) → 128</text>
  <text x="940" y="525" font-family="Arial" font-size="14" text-anchor="middle">ConvBlock → 128</text>
  
  <!-- Up3 -->
  <rect x="830" y="400" width="220" height="60" rx="5" fill="#E8F5E9" stroke="#388E3C" stroke-width="1" />
  <text x="940" y="425" font-family="Arial" font-size="14" text-anchor="middle">Up3: Upsample(×2) → 64</text>
  <text x="940" y="445" font-family="Arial" font-size="14" text-anchor="middle">ConvBlock → 64</text>
  
  <!-- Up4 -->
  <rect x="830" y="320" width="220" height="60" rx="5" fill="#E8F5E9" stroke="#388E3C" stroke-width="1" />
  <text x="940" y="345" font-family="Arial" font-size="14" text-anchor="middle">Up4: Upsample(×2) → 32</text>
  <text x="940" y="365" font-family="Arial" font-size="14" text-anchor="middle">ConvBlock → 32</text>
  
  <!-- Final Conv -->
  <rect x="830" y="240" width="220" height="60" rx="5" fill="#E8F5E9" stroke="#388E3C" stroke-width="1" />
  <text x="940" y="265" font-family="Arial" font-size="14" text-anchor="middle">Final Conv (1 filter)</text>
  <text x="940" y="285" font-family="Arial" font-size="14" text-anchor="middle">Sigmoid Activation</text>
  
  <!-- Output -->
  <rect x="880" y="120" width="120" height="60" rx="5" fill="#B3E5FC" stroke="#0288D1" stroke-width="2" />
  <text x="940" y="155" font-family="Arial" font-size="14" text-anchor="middle">Output Volume</text>
  <text x="940" y="175" font-family="Arial" font-size="12" text-anchor="middle">(1, 64, 128, 128)</text>

  <!-- Connecting Lines -->
  <!-- Input to Encoder -->
  <line x1="210" y1="180" x2="210" y2="200" stroke="#0288D1" stroke-width="2" />
  
  <!-- Encoder Path -->
  <line x1="210" y1="240" x2="210" y2="260" stroke="#0288D1" stroke-width="2" />
  <line x1="210" y1="320" x2="210" y2="340" stroke="#0288D1" stroke-width="2" />
  <line x1="210" y1="400" x2="210" y2="420" stroke="#0288D1" stroke-width="2" />
  <line x1="210" y1="480" x2="210" y2="500" stroke="#0288D1" stroke-width="2" />
  <line x1="210" y1="560" x2="210" y2="580" stroke="#0288D1" stroke-width="2" />
  <line x1="210" y1="620" x2="210" y2="630" stroke="#0288D1" stroke-width="2" />
  
  <!-- Split to Mean and LogVar -->
  <path d="M 210 630 C 210 635, 95 635, 95 640" stroke="#7B1FA2" stroke-width="2" />
  <path d="M 210 630 C 210 635, 325 635, 325 640" stroke="#7B1FA2" stroke-width="2" />
  
  <!-- Mean and LogVar to Reparameterization -->
  <line x1="95" y1="700" x2="95" y2="720" stroke="#7B1FA2" stroke-width="2" />
  <line x1="325" y1="700" x2="325" y2="720" stroke="#7B1FA2" stroke-width="2" />
  <path d="M 95 720 L 100 720" stroke="#7B1FA2" stroke-width="2" />
  <path d="M 325 720 L 320 720" stroke="#7B1FA2" stroke-width="2" />
  
  <!-- Reparameterization to Latent -->
  <line x1="210" y1="780" x2="210" y2="800" stroke="#FF8F00" stroke-width="2" />
  
  <!-- Latent to Decoder -->
  <path d="M 270 830 H 880" stroke="#FF8F00" stroke-width="2" stroke-dasharray="5,5" />
  
  <!-- Decoder Path -->
  <line x1="940" y1="800" x2="940" y2="780" stroke="#388E3C" stroke-width="2" />
  <line x1="940" y1="720" x2="940" y2="700" stroke="#388E3C" stroke-width="2" />
  <line x1="940" y1="640" x2="940" y2="620" stroke="#388E3C" stroke-width="2" />
  <line x1="940" y1="560" x2="940" y2="540" stroke="#388E3C" stroke-width="2" />
  <line x1="940" y1="480" x2="940" y2="460" stroke="#388E3C" stroke-width="2" />
  <line x1="940" y1="400" x2="940" y2="380" stroke="#388E3C" stroke-width="2" />
  <line x1="940" y1="320" x2="940" y2="300" stroke="#388E3C" stroke-width="2" />
  <line x1="940" y1="240" x2="940" y2="180" stroke="#388E3C" stroke-width="2" />
  
  <!-- ConvBlock Definition Box -->
  <rect x="500" y="340" width="200" height="170" rx="5" fill="#ECEFF1" stroke="#546E7A" stroke-width="1" />
  <text x="600" y="365" font-family="Arial" font-size="16" text-anchor="middle" font-weight="bold">ConvBlock</text>
  <line x1="520" y1="375" x2="680" y2="375" stroke="#546E7A" stroke-width="1" />
  <text x="600" y="400" font-family="Arial" font-size="14" text-anchor="middle">3D Convolution</text>
  <text x="600" y="425" font-family="Arial" font-size="14" text-anchor="middle">Batch Normalization</text>
  <text x="600" y="450" font-family="Arial" font-size="14" text-anchor="middle">ReLU (inplace)</text>
  <text x="600" y="485" font-family="Arial" font-size="12" text-anchor="middle" font-style="italic">Memory-efficient block with</text>
  <text x="600" y="505" font-family="Arial" font-size="12" text-anchor="middle" font-style="italic">kernel_size=3, padding=1</text>
  
  <!-- VAE Loss Component -->
  <rect x="500" y="540" width="200" height="190" rx="5" fill="#FFEBEE" stroke="#C62828" stroke-width="1" />
  <text x="600" y="565" font-family="Arial" font-size="16" text-anchor="middle" font-weight="bold">VAE Loss</text>
  <line x1="520" y1="575" x2="680" y2="575" stroke="#C62828" stroke-width="1" />
  <text x="600" y="595" font-family="Arial" font-size="14" text-anchor="middle">Reconstruction Loss</text>
  <text x="600" y="615" font-family="Arial" font-size="12" text-anchor="middle">MSE(input, output)</text>
  <line x1="550" y1="630" x2="650" y2="630" stroke="#C62828" stroke-width="1" stroke-dasharray="2,2" />
  <text x="600" y="650" font-family="Arial" font-size="14" text-anchor="middle">KL Divergence Loss</text>
  <text x="600" y="670" font-family="Arial" font-size="12" text-anchor="middle">DKL(N(μ,σ²) || N(0,1))</text>
  <line x1="550" y1="685" x2="650" y2="685" stroke="#C62828" stroke-width="1" stroke-dasharray="2,2" />
  <text x="600" y="705" font-family="Arial" font-size="14" text-anchor="middle">Total Loss</text>
  <text x="600" y="725" font-family="Arial" font-size="12" text-anchor="middle">Recon Loss + β·KL Loss</text>
</svg>